#!OML:ASF I:\salsa\salsa 7_09\Patient 1\Session 1\dancerfemale.ASF
:FULLY-SPECIFIED
:DEGREES
1110
root 7.53158 15.7347 1.92993 -1427.6 618.189 1074.34
lowerback 0.924397 -3.19524 -5.55583
upperback -8.40348 -4.80896 1.7016
thorax -8.82425 -2.00486 5.31896
lowerneck 17.3379 -20.1499 -13.6002
upperneck -6.47808 -29.2635 20.3077
head 0.415866 -15.5918 8.24654
rclavicle -4.58696e-014 -1.45113e-014
rhumerus -15.9952 -16.3296 -87.4514
rradius 59.7411
rwrist -24.4961
rhand -41.0407 66.6383
rfingers 7.12502
rthumb -13.9708 37.1278
lclavicle -4.58696e-014 -1.45113e-014
lhumerus -50.5884 -0.667849 105.541
lradius 96.8278
lwrist -6.25163
lhand -24.6966 34.3014
lfingers 7.12502
lthumb 1.80463 64.2735
rfemur -28.9653 -10.84 35.3258
rtibia 43.9725
rfoot -9.38062 4.82222
rtoes -14.9667
lfemur -27.8306 1.61827 -14.5844
ltibia 73.9163
lfoot -0.39373 1.59441
ltoes 2.67386
1111
root 7.34864 15.7146 1.92929 -1430.93 611.853 1077.99
lowerback 0.775068 -3.098 -5.52892
upperback -8.36211 -4.65029 2.25122
thorax -8.67066 -1.92318 5.86872
lowerneck 16.7172 -19.1995 -13.6154
upperneck -5.94216 -28.046 20.4811
head 0.486503 -14.9802 8.31876
rclavicle 2.28602e-014 8.74653e-015
rhumerus -17.5028 -13.875 -88.2348
rradius 61.3724
rwrist -26.5625
rhand -39.5283 64.9748
rfingers 7.12502
rthumb -12.5131 35.3694
lclavicle 2.28602e-014 8.74653e-015
lhumerus -50.5115 -1.65918 106.525
lradius 96.5972
lwrist -6.09145
lhand -24.1874 34.2843
lfingers 7.12502
lthumb 2.29634 64.2517
rfemur -27.7564 -9.25106 35.3364
rtibia 44.0459
rfoot -8.41226 8.24178
rtoes -12.4802
lfemur -29.6681 0.851652 -14.1399
ltibia 74.0539
lfoot -3.84537 4.95611
ltoes 5.91837
1112
root 7.15827 15.699 1.93916 -1432.12 605.016 1079.47
lowerback 0.695574 -2.90097 -5.49672
upperback -8.34588 -4.37579 2.70404
thorax -8.6153 -1.78611 6.31548
lowerneck 15.939 -18.1121 -13.2715
upperneck -5.32829 -26.5526 20.3254
head 0.458369 -14.2121 8.27728
rclavicle 1.11319e-014 4.77083e-015
rhumerus -18.9995 -12.7774 -89.0235
rradius 62.4862
rwrist -28.0221
rhand -36.7605 63.7455
rfingers 7.12502
rthumb -9.84359 33.9956
lclavicle 1.11319e-014 4.77083e-015
lhumerus -50.7988 -2.70416 107.545
lradius 96.6388
lwrist -5.85825
lhand -23.1667 34.3162
lfingers 7.12502
lthumb 3.28216 64.2706
rfemur -26.419 -7.67958 34.9708
rtibia 43.9377
rfoot -7.97764 12.6066
rtoes -12.4943
lfemur -31.1209 0.240508 -13.7639
ltibia 73.6844
lfoot -6.79988 7.99089
ltoes 10.6608
1113
root 6.96251 15.6959 1.95488 -1432.75 597.895 1080.45
lowerback 0.708755 -2.67044 -5.26969
upperback -8.32319 -4.05621 3.12949
thorax -8.63077 -1.64035 6.6294
lowerneck 15.002 -16.9157 -12.5917
upperneck -4.63029 -24.8214 19.7695
head 0.350677 -13.3009 8.08001
rclavicle 7.35503e-015 -2.14687e-014
rhumerus -20.312 -13.0984 -89.6378
rradius 63.1033
rwrist -29.5973
rhand -31.9504 62.1771
rfingers 7.12502
rthumb -5.20082 32.2609
lclavicle 7.35503e-015 -2.14687e-014
lhumerus -51.2901 -3.4366 108.341
lradius 96.5954
lwrist -5.87938
lhand -23.2307 33.9072
lfingers 7.12502
lthumb 3.22031 63.8627
rfemur -25.0842 -6.3809 34.4226
rtibia 43.6605
rfoot -6.3895 17.1247
rtoes -6.59949
lfemur -32.3923 -0.135911 -13.2354
ltibia 72.8908
lfoot -9.73078 9.65341
ltoes 8.45696
1114
root 6.75751 15.7443 1.96122 -1433.15 590.686 1081.26
lowerback 0.660865 -2.48847 -4.84393
upperback -8.19056 -3.78474 3.55523
thorax -8.49226 -1.54163 6.8226
lowerneck 14.0165 -15.5468 -11.9764
upperneck -3.9234 -22.8665 19.2618
head 0.251419 -12.2788 7.89319
rclavicle -3.84648e-014 -1.59028e-015
rhumerus -21.4276 -13.2247 -90.3907
rradius 63.3112
rwrist -29.7991
rhand -27.8703 60.8037
rfingers 7.12502
rthumb -1.26066 30.8277
lclavicle -3.84648e-014 -1.59028e-015
lhumerus -51.7149 -4.12649 109.194
lradius 96.6666
lwrist -5.5445
lhand -23.5836 33.6733
lfingers 7.12502
lthumb 2.87948 63.6336
rfemur -23.6374 -5.29644 33.7416
rtibia 43.0563
rfoot -3.78954 21.6347
rtoes 0.323674
lfemur -33.1325 -1.58208 -12.3069
ltibia 71.3506
lfoot -12.7624 11.6888
ltoes 14.1525
1115
root 6.54327 15.7711 1.97323 -1433.13 583.472 1081.96
lowerback 0.369232 -2.32702 -4.14454
upperback -8.02793 -3.53249 3.91681
thorax -8.19034 -1.48517 6.7728
lowerneck 12.9845 -14.1208 -11.3548
upperneck -3.26074 -20.8247 18.7644
head 0.155563 -11.2122 7.68893
rclavicle -8.72665e-014 -6.36111e-015
rhumerus -22.6569 -12.1502 -91.0573
rradius 63.3797
rwrist -29.4012
rhand -27.1679 60.9349
rfingers 7.12502
rthumb -0.582216 30.9559
lclavicle -8.72665e-014 -6.36111e-015
lhumerus -52.0499 -4.85079 109.856
lradius 96.69
lwrist -5.48193
lhand -23.0249 32.6114
lfingers 7.12502
lthumb 3.41908 62.5637
rfemur -22.6122 -4.18992 32.9989
rtibia 42.29
rfoot -0.83812 25.8938
rtoes 4.63195
lfemur -34.4584 -2.69753 -11.2203
ltibia 69.6389
lfoot -15.1505 12.041
ltoes 11.7641
1116
root 6.31891 15.8187 1.97354 -1432.9 576.252 1082.53
lowerback 0.240045 -2.16713 -3.40326
upperback -7.93587 -3.30418 4.2522
thorax -8.06095 -1.43814 6.68902
lowerneck 11.9829 -12.662 -10.5698
upperneck -2.54828 -18.7113 17.9432
head 0.0358381 -10.0965 7.34986
rclavicle -5.19822e-014 -5.725e-014
rhumerus -24.1583 -10.2511 -91.4158
rradius 63.4896
rwrist -28.7871
rhand -28.3138 60.073
rfingers 7.12502
rthumb -1.68898 30.1
lclavicle -5.19822e-014 -5.725e-014
lhumerus -52.5559 -5.54047 110.55
lradius 96.7769
lwrist -5.50796
lhand -22.6692 31.6952
lfingers 7.12502
lthumb 3.76257 61.6418
rfemur -21.5923 -2.96154 32.1336
rtibia 41.1787
rfoot 1.88068 29.7239
rtoes 6.54356
lfemur -35.4162 -4.22884 -9.86801
ltibia 67.3688
lfoot -15.646 11.6301
ltoes 12.7061
1117
root 6.08747 15.8931 1.95523 -1432.63 568.971 1082.8
lowerback 0.452991 -1.98064 -2.9467
upperback -7.80532 -3.05689 4.50892
thorax -8.08377 -1.35441 6.70094
lowerneck 10.9448 -11.1784 -9.687
upperneck -1.70266 -16.5743 16.9544
head -0.0286477 -8.96114 6.91372
rclavicle -1.48095e-014 6.04305e-014
rhumerus -25.4872 -9.51801 -91.1396
rradius 63.4377
rwrist -29.5071
rhand -26.0379 58.8981
rfingers 7.12502
rthumb 0.509146 28.919
lclavicle -1.48095e-014 6.04305e-014
lhumerus -53.0897 -6.26051 111.237
lradius 96.9309
lwrist -5.57508
lhand -22.1685 31.2361
lfingers 7.12502
lthumb 4.24609 61.1735
rfemur -20.4291 -1.97105 30.9337
rtibia 39.9732
rfoot 4.86872 33.3535
rtoes 8.16063
lfemur -35.7531 -6.73371 -8.39136
ltibia 64.6865
lfoot -16.8964 9.77163
ltoes 9.92724
1118
root 5.85451 15.9807 1.92379 -1432.14 561.774 1082.72
lowerback 0.67962 -1.79627 -2.81298
upperback -7.66011 -2.8273 4.59156
thorax -8.09084 -1.25995 6.70754
lowerneck 10.0688 -9.6312 -8.9675
upperneck -0.978484 -14.4082 16.3455
head -0.0766278 -7.83836 6.61126
rclavicle -2.05742e-014 -4.69132e-014
rhumerus -26.8298 -8.83882 -91.1805
rradius 63.1272
rwrist -28.2059
rhand -27.8374 60.17
rfingers 7.12502
rthumb -1.22889 30.1938
lclavicle -2.05742e-014 -4.69132e-014
lhumerus -53.5542 -7.23648 111.819
lradius 97.1531
lwrist -5.22705
lhand -21.3159 30.9825
lfingers 7.12502
lthumb 5.06935 60.9019
rfemur -19.2749 0.328237 29.3713
rtibia 38.4384
rfoot 7.3685 35.1729
rtoes 8.62927
lfemur -36.1339 -9.32221 -7.07989
ltibia 61.6647
lfoot -16.1915 6.69258
ltoes 8.10065
1119
root 5.60961 16.0497 1.88406 -1431.62 554.807 1082.75
lowerback 0.8342 -1.65345 -2.47431
upperback -7.54389 -2.64967 4.61434
thorax -8.0883 -1.20946 6.53179
lowerneck 9.41915 -8.05274 -8.40737
upperneck -0.491716 -12.2197 15.9723
head -0.17862 -6.72474 6.40957
rclavicle -1.33186e-014 -7.95139e-016
rhumerus -28.2835 -9.52315 -90.384
rradius 63.0136
rwrist -28.3704
rhand -24.877 58.4563
rfingers 7.12502
rthumb 1.63036 28.4828
lclavicle -1.33186e-014 -7.95139e-016
lhumerus -54.0769 -8.40269 112.452
lradius 97.313
lwrist -5.27172
lhand -21.4623 31.0546
lfingers 7.12502
lthumb 4.928 60.9772
rfemur -18.3097 2.73709 27.8388
rtibia 36.6616
rfoot 9.53452 36.4442
rtoes 8.28826
lfemur -36.2648 -12.9026 -4.99327
ltibia 58.356
lfoot -16.4864 1.63575
ltoes 6.99059
1120
root 5.3442 16.1422 1.81203 -1431.3 547.751 1082.97
lowerback 0.9451 -1.45915 -1.65883
upperback -7.3083 -2.37282 4.53326
thorax -7.95597 -1.14672 5.95422
lowerneck 8.59588 -6.5117 -7.67456
upperneck 0.125186 -10.0755 15.4452
head -0.202762 -5.61894 6.10265
rclavicle -1.6201e-014 -4.45278e-014
rhumerus -29.7338 -10.1126 -89.1461
rradius 62.7447
rwrist -29.0309
rhand -22.2912 59.3852
rfingers 7.12502
rthumb 4.12755 29.4454
lclavicle -1.6201e-014 -4.45278e-014
lhumerus -54.5533 -9.52201 112.912
lradius 97.4223
lwrist -5.58295
lhand -21.3167 30.3285
lfingers 7.12502
lthumb 5.06855 60.2479
rfemur -17.1041 5.55855 26.3678
rtibia 34.6507
rfoot 11.6103 37.2431
rtoes 8.06581
lfemur -36.1807 -16.8837 -2.64493
ltibia 55.0788
lfoot -15.9289 -4.47845
ltoes 4.72848
1121
root 5.07799 16.2454 1.72102 -1430.9 540.646 1083.15
lowerback 1.15363 -1.25919 -0.939595
upperback -7.14995 -2.0982 4.38578
thorax -7.95827 -1.07565 5.37117
lowerneck 7.82305 -5.7999 -7.04716
upperneck 1.125 -7.68555 14.8816
head -0.0990549 -3.86488 5.77836
rclavicle -4.03533e-014 6.99722e-014
rhumerus -31.1938 -10.3216 -87.5917
rradius 62.4699
rwrist -30.6978
rhand -17.9006 56.5634
rfingers 7.12502
rthumb 8.36626 26.7491
lclavicle -4.03533e-014 6.99722e-014
lhumerus -55.0112 -10.4479 113.292
lradius 97.5121
lwrist -5.58188
lhand -20.6025 29.6133
lfingers 7.12502
lthumb 5.75814 59.5151
rfemur -16.0761 8.36228 24.7727
rtibia 32.5062
rfoot 13.5842 37.7196
rtoes 7.7692
lfemur -36.1227 -21.2831 -0.139987
ltibia 51.9558
lfoot -16.31 -9.38407
ltoes -3.0479
